<?xml version="1.0" encoding="UTF-8"?>
<svg width="32px" height="32px" viewBox="0 0 32 32" version="1.1" xmlns="http://www.w3.org/2000/svg" xmlns:xlink="http://www.w3.org/1999/xlink">
    <!-- Generator: Sketch 50.2 (55047) - http://www.bohemiancoding.com/sketch -->
    <title>icon_bubbles_marks</title>
    <desc>Created with Sketch.</desc>
    <defs></defs>
    <g id="icon_bubbles_marks" stroke="none" stroke-width="1" fill="none" fill-rule="evenodd">
        <path d="M8.45235474,15.0057493 C7.73815165,14.1359049 7.24941808,13.1623296 7.04259666,12.1248654 C6.96932898,11.7573377 6.93144048,11.3817922 6.93144048,11 C6.93144048,6.581722 12.0055466,3 18.2647738,3 C24.524001,3 29.5981071,6.581722 29.5981071,11 C29.5981071,11.8545057 29.4083127,12.6777205 29.0568573,13.4497854 L32,17.6666667 L25.5385742,17.1351854 C24.2696785,17.8855735 22.7645409,18.4434589 21.1133336,18.7451907 C20.9197665,18.4317076 20.694625,18.1301722 20.4407449,17.8425863 C22.1387901,17.5931959 23.710874,17.0542599 25.0295503,16.2744331 L25.3034329,16.1124668 L29.9632979,16.4957616 L27.9104582,13.5544903 L28.1467205,13.0354776 C28.445616,12.3788744 28.5981071,11.6961476 28.5981071,11 C28.5981071,7.22357706 24.031373,4 18.2647738,4 C12.4981747,4 7.93144048,7.22357706 7.93144048,11 C7.93144048,11.3130014 7.96224332,11.6230891 8.0232992,11.9293596 C8.2249452,12.9408627 8.75952146,13.9048737 9.56483145,14.7554255 C9.18476177,14.8237075 8.81345971,14.9074851 8.45235474,15.0057493 Z" id="Combined-Shape" fill="#D24335" fill-rule="nonzero"></path>
        <path d="M18.2133406,23.7878007 L18.4496029,23.268788 C18.7038395,22.7102899 18.8333333,22.1305258 18.8333333,21.5395336 C18.8333333,18.3153954 14.9008624,15.5395336 9.91666667,15.5395336 C4.9324709,15.5395336 1,18.3153954 1,21.5395336 C1,21.805178 1.02613945,22.06832 1.0779642,22.328285 C1.45497786,24.219473 3.20660278,25.9268962 5.77867352,26.8464657 C7.04498104,27.2991973 8.45442819,27.5395336 9.91666667,27.5395336 C12.1013363,27.5395336 14.1579529,27.001698 15.7722181,26.0470684 L16.0461008,25.8851022 L19.8982875,26.2019618 L18.2133406,23.7878007 Z M9.91666667,28.5395336 C8.30669669,28.5395336 6.78633512,28.2687153 5.44202129,27.7880948 C2.60839653,26.7750142 0.556964524,24.829767 0.0972616625,22.5237908 C0.0331524428,22.2022041 0,21.8736017 0,21.5395336 C0,17.6735403 4.4398429,14.5395336 9.91666667,14.5395336 C15.3934904,14.5395336 19.8333333,17.6735403 19.8333333,21.5395336 C19.8333333,22.2872261 19.6672632,23.007539 19.3597397,23.6830958 L21.9349896,27.3728669 L16.281242,26.9078208 C14.5589519,27.9263331 12.3392572,28.5395336 9.91666667,28.5395336 Z" id="Oval-4" fill="#D24335" fill-rule="nonzero" transform="translate(10.967495, 21.539534) scale(-1, 1) translate(-10.967495, -21.539534) "></path>
        <path d="M17.8445034,5.62229945 L19.2011702,5.62229945 L19.0858535,12.1614333 L17.9598201,12.1614333 L17.8445034,5.62229945 Z M17.5867368,14.5966502 C17.5867368,14.0404168 17.9801701,13.6469834 18.5296202,13.6469834 C19.0790702,13.6469834 19.4657202,14.0404168 19.4657202,14.5966502 C19.4657202,15.1461002 19.0790702,15.5395336 18.5296202,15.5395336 C17.9801701,15.5395336 17.5867368,15.1461002 17.5867368,14.5966502 Z" id="!" fill="#D24335"></path>
        <path d="M9.10745456,19.1035659 C9.18445354,17.591586 10.1924402,16.387602 12.159414,16.387602 C13.9233906,16.387602 15.1273746,17.4795875 15.1273746,18.9215683 C15.1273746,20.0205537 14.5603821,20.7975434 13.664394,21.3365363 C12.7754058,21.8615293 12.5234092,22.2535241 12.5234092,22.9885143 L12.5234092,23.4435083 L11.2984255,23.4435083 L11.2984255,22.7995168 C11.2914256,21.8755291 11.7394196,21.2455375 12.6984069,20.6715451 C13.5103961,20.1745517 13.8253919,19.7335576 13.8253919,18.9845675 C13.8253919,18.116579 13.1534008,17.4795875 12.1104147,17.4795875 C11.0534287,17.4795875 10.3814376,18.1025792 10.3044387,19.1035659 L9.10745456,19.1035659 Z M12.0054161,26.6914651 C11.4384236,26.6914651 11.032429,26.2854705 11.032429,25.7184781 C11.032429,25.1444857 11.4384236,24.7384911 12.0054161,24.7384911 C12.5724085,24.7384911 12.9714032,25.1444857 12.9714032,25.7184781 C12.9714032,26.2854705 12.5724085,26.6914651 12.0054161,26.6914651 Z" id="?" fill="#D24335"></path>
    </g>
</svg>