<?xml version="1.0" encoding="UTF-8"?>
<svg width="246px" height="100px" viewBox="0 0 246 100" version="1.1" xmlns="http://www.w3.org/2000/svg" xmlns:xlink="http://www.w3.org/1999/xlink">
    <!-- Generator: Sketch 42 (36781) - http://www.bohemiancoding.com/sketch -->
    <title>n42-logo-full</title>
    <desc>Created with Sketch.</desc>
    <defs></defs>
    <g id="Page-1" stroke="none" stroke-width="1" fill="none" fill-rule="evenodd">
        <g id="n42-logo-full" fill="#D24335">
            <g id="Imported-Layers" transform="translate(10.000000, 9.000000)">
                <path d="M189.925304,81.1722432 C188.264647,81.1722432 186.625039,80.7345405 185.185951,79.9067838 L158.594392,64.6082432 C155.660824,62.9194865 153.83399,59.768027 153.828451,56.3816486 L153.779706,25.6981351 C153.774167,22.3128649 155.589922,19.1547568 158.517951,17.456027 L185.059657,2.07216216 C187.943373,0.401135135 191.676804,0.394486486 194.564951,2.05664865 L221.15651,17.3551892 C224.091186,19.0428378 225.916912,22.1954054 225.922451,25.5817838 L225.972304,56.2652973 C225.977843,59.6505676 224.162088,62.8086757 221.232951,64.5062973 L194.691245,79.8912703 C193.244402,80.729 191.597039,81.1722432 189.925304,81.1722432 L189.925304,81.1722432 Z M189.826706,6.33062162 C189.128765,6.33062162 188.440794,6.51567568 187.83702,6.86583784 L161.295314,22.2508108 C160.074471,22.9588919 159.316706,24.2764324 159.318922,25.6892703 L159.367667,56.3738919 C159.369882,57.7856216 160.132078,59.1009459 161.356245,59.8057027 L187.947804,75.1042432 C189.153137,75.7968108 190.710765,75.7945946 191.913882,75.0975946 L218.455588,59.7126216 C219.677539,59.0045405 220.435304,57.687 220.433088,56.2741622 L220.383235,25.5906486 C220.38102,24.1778108 219.618824,22.8624865 218.394657,22.1577297 L191.803098,6.85918919 C191.202647,6.51345946 190.519108,6.33062162 189.826706,6.33062162 L189.826706,6.33062162 Z" id="Fill-1"></path>
                <path d="M0.742254902,26.4427838 L7.34832353,26.4427838 L14.7387451,38.9123243 C15.784549,40.6664595 16.9788039,43.4666486 16.9788039,43.4666486 L17.0530294,43.4666486 C17.0530294,43.4666486 16.7550196,40.5922162 16.7550196,38.9123243 L16.7550196,26.4427838 L23.2868627,26.4427838 L23.2868627,53.136 L16.7173529,53.136 L9.28926471,40.7041351 C8.24456863,38.9488919 7.05031373,36.1498108 7.05031373,36.1498108 L6.97498039,36.1498108 C6.97498039,36.1498108 7.27409804,39.0242432 7.27409804,40.7041351 L7.27409804,53.136 L0.742254902,53.136 L0.742254902,26.4427838" id="Fill-2"></path>
                <path d="M28.5491176,33.9092162 L35.0067353,33.9092162 L35.0067353,45.1842162 C35.0067353,46.976027 35.7157549,47.7228919 37.0595686,47.7228919 C39.8214216,47.7228919 41.1275686,45.2961351 41.1275686,42.4217027 L41.1275686,33.9092162 L47.5851863,33.9092162 L47.5851863,53.136 L41.3890196,53.136 L41.3890196,51.4561081 C41.3890196,50.8211622 41.4632451,50.2615676 41.4632451,50.2615676 L41.3890196,50.2615676 C40.3443235,52.3148919 37.9547059,53.5836757 35.3800784,53.5836757 C31.5724216,53.5836757 28.5491176,51.7918649 28.5491176,46.3787568 L28.5491176,33.9092162" id="Fill-3"></path>
                <path d="M52.3622059,33.9092162 L58.5583725,33.9092162 L58.5583725,35.5891081 C58.5583725,36.2240541 58.4830392,36.7836486 58.4830392,36.7836486 L58.5583725,36.7836486 C59.4535098,35.4395135 61.246,33.4615405 64.2693039,33.4615405 C66.6954804,33.4615405 68.6364216,34.5441622 69.643451,36.7094054 L69.7187843,36.7094054 C70.7258137,35.1037568 73.0024314,33.4615405 75.8772843,33.4615405 C79.3858235,33.4615405 82.1100098,35.3652703 82.1100098,40.6664595 L82.1100098,53.136 L75.6535,53.136 L75.6535,41.7490811 C75.6535,40.3307027 75.392049,39.3223243 74.1601275,39.3223243 C72.1072941,39.3223243 71.0249314,40.8160541 70.6139216,42.9436216 C70.4643627,43.6162432 70.4643627,44.3996757 70.4643627,45.1842162 L70.4643627,53.136 L64.0078529,53.136 L64.0078529,41.7490811 C64.0078529,40.3307027 63.746402,39.3223243 62.5144804,39.3223243 C60.4993137,39.3223243 59.4535098,40.7418108 59.0059412,42.7951351 C58.8563824,43.5043243 58.8198235,44.3631081 58.8198235,45.1842162 L58.8198235,53.136 L52.3622059,53.136 L52.3622059,33.9092162" id="Fill-4"></path>
                <path d="M86.6266863,26.4427838 L93.0843039,26.4427838 L93.0843039,33.8715405 C93.0843039,34.8422432 93.0100784,35.5148649 93.0100784,35.5148649 L93.0843039,35.5148649 C93.0843039,35.5148649 94.8756863,33.4615405 98.2723333,33.4615405 C103.498029,33.4615405 106.931235,37.5681892 106.931235,43.5408919 C106.931235,49.6266216 103.08702,53.5836757 97.9732157,53.5836757 C94.4281176,53.5836757 92.7109608,51.4184324 92.7109608,51.4184324 L92.6367353,51.4184324 C92.6367353,51.4184324 92.6732941,51.9037838 92.6732941,52.5010541 L92.6732941,53.136 L86.6266863,53.136 L86.6266863,26.4427838 L86.6266863,26.4427838 Z M96.6670686,48.2459189 C98.6833431,48.2459189 100.437059,46.6025946 100.437059,43.6539189 C100.437059,40.7783784 98.9071275,38.9123243 96.6670686,38.9123243 C94.7261275,38.9123243 92.8970784,40.3307027 92.8970784,43.6539189 C92.8970784,45.9676486 94.129,48.2459189 96.6670686,48.2459189 L96.6670686,48.2459189 Z" id="Fill-5"></path>
                <path d="M119.025559,33.4615405 C124.698824,33.4615405 127.908245,37.4185946 127.908245,42.7574595 C127.908245,43.3924054 127.758686,44.7731081 127.758686,44.7731081 L115.628912,44.7731081 C116.113039,47.1256216 118.055088,48.2082432 120.106814,48.2082432 C122.869775,48.2082432 125.407843,46.2668378 125.407843,46.2668378 L127.796353,50.7845946 C127.796353,50.7845946 124.698824,53.5836757 119.58502,53.5836757 C112.7175,53.5836757 109.021735,48.6182432 109.021735,43.5043243 C109.021735,37.8662703 112.829392,33.4615405 119.025559,33.4615405 L119.025559,33.4615405 Z M121.414069,41.0775676 C121.414069,39.6215135 120.405931,38.3150541 118.876,38.3150541 C117.009284,38.3150541 116.113039,39.6591892 115.777363,41.0775676 L121.414069,41.0775676 L121.414069,41.0775676 Z" id="Fill-6"></path>
                <path d="M131.416784,33.9092162 L137.612951,33.9092162 L137.612951,37.1570811 C137.612951,37.792027 137.537618,38.3516216 137.537618,38.3516216 L137.612951,38.3516216 C138.433863,35.7387027 140.860039,33.5734595 143.733784,33.5734595 C144.107127,33.5734595 144.480471,33.6477027 144.480471,33.6477027 L144.480471,39.9949459 C144.480471,39.9949459 143.957569,39.883027 143.174324,39.883027 C141.643284,39.883027 139.142882,40.3683784 138.210078,43.2428108 C137.986294,43.952 137.874402,44.8107838 137.874402,45.8557297 L137.874402,53.136 L131.416784,53.136 L131.416784,33.9092162" id="Fill-7"></path>
                <path d="M167.492588,42.7197838 L177.793314,26.4416757 L185.780863,26.4416757 L185.780863,41.2637297 L188.953725,41.2637297 L188.953725,46.6768378 L185.780863,46.6768378 L185.780863,53.136 L179.324353,53.136 L179.324353,46.6768378 L167.492588,46.6768378 L167.492588,42.7197838 L167.492588,42.7197838 Z M179.324353,41.2637297 L179.324353,35.2899189 C179.324353,33.8338649 179.548137,32.3035676 179.548137,32.3035676 L179.472804,32.3035676 C179.472804,32.3035676 178.913343,33.9457838 178.166657,35.0660811 L174.136324,41.1883784 L174.136324,41.2637297 L179.324353,41.2637297 L179.324353,41.2637297 Z" id="Fill-8"></path>
                <path d="M192.350373,50.2604595 C192.350373,40.4049459 203.884127,38.6497027 203.884127,34.8045676 C203.884127,32.9385135 202.390755,32.153973 201.009275,32.153973 C198.471206,32.153973 197.053167,34.9918378 197.053167,34.9918378 L192.200814,31.743973 C192.200814,31.743973 194.664657,25.994 201.606402,25.994 C205.97352,25.994 210.71398,28.495 210.71398,34.1696216 C210.71398,42.4959459 199.964578,44.1004865 199.778461,47.5356216 L211.12499,47.5356216 L211.12499,53.136 L192.64949,53.136 C192.462265,52.0899459 192.350373,51.1569189 192.350373,50.2604595" id="Fill-9"></path>
            </g>
        </g>
    </g>
</svg>