<?xml version="1.0" encoding="UTF-8"?>
<svg width="100px" height="100px" viewBox="0 0 100 100" version="1.1" xmlns="http://www.w3.org/2000/svg" xmlns:xlink="http://www.w3.org/1999/xlink">
    <!-- Generator: Sketch 42 (36781) - http://www.bohemiancoding.com/sketch -->
    <title>n42-logo-icon</title>
    <desc>Created with Sketch.</desc>
    <defs></defs>
    <g id="Page-1" stroke="none" stroke-width="1" fill="none" fill-rule="evenodd">
        <g id="n42-logo-icon" fill="#D24335">
            <g id="Imported-Layers" transform="translate(12.000000, 8.000000)">
                <path d="M38.9849851,84.2108784 C37.2622537,84.235 35.5556119,83.8042568 34.0512388,82.9657432 L6.25308955,67.4819595 C3.18573134,65.7739189 1.24808955,62.5324324 1.19407463,59.0233108 L0.71138806,27.2206757 C0.658522388,23.7115541 2.49732836,20.4126351 5.51067164,18.6115541 L32.8261343,2.2927027 C35.7946567,0.520337838 39.6664925,0.460608108 42.6855821,2.14337838 L70.4837313,17.6260135 C73.5510896,19.3352027 75.4898806,22.5766892 75.5427463,26.0858108 L76.0254328,57.8884459 C76.0794478,61.3975676 74.2394925,64.6964865 71.2261493,66.4975676 L43.9106866,82.8164189 C42.4212537,83.705473 40.719209,84.1879054 38.9849851,84.2108784 L38.9849851,84.2108784 Z M37.8299851,6.64033784 C37.1059552,6.64952703 36.3957164,6.85168919 35.7739701,7.2227027 L8.45965672,23.5415541 C7.20237313,24.2927703 6.43467164,25.6688514 6.45650746,27.1333784 L6.94034328,58.9371622 C6.9621791,60.4005405 7.77125373,61.7525 9.05037313,62.4658108 L36.8485224,77.9495946 C38.1081045,78.6502703 39.7239552,78.6261486 40.9617015,77.8864189 L68.2771642,61.5675676 C69.5344478,60.8163514 70.3021493,59.4391216 70.2803134,57.9757432 L69.7976269,26.1731081 C69.775791,24.7085811 68.9667164,23.355473 67.6864478,22.6433108 L39.8882985,7.15952703 C39.260806,6.81033784 38.5494179,6.63 37.8299851,6.64033784 L37.8299851,6.64033784 Z" id="Fill-1"></path>
                <path d="M15.1747463,44.6697973 L25.631806,27.6537162 L33.9167761,27.5422973 L34.124791,42.9043243 L37.4162537,42.859527 L37.4921045,48.4706757 L34.201791,48.515473 L34.2925821,55.2097973 L27.5947313,55.3005405 L27.5039403,48.6062162 L15.2299104,48.7716216 L15.1747463,44.6697973 L15.1747463,44.6697973 Z M27.4269403,42.9950676 L27.3430448,36.8038514 C27.3235075,35.294527 27.5338209,33.7047973 27.5338209,33.7047973 L27.4568209,33.7059459 C27.4568209,33.7059459 26.8982836,35.4162838 26.1397761,36.5879054 L22.0449851,42.990473 L22.0461343,43.0674324 L27.4269403,42.9950676 L27.4269403,42.9950676 Z" id="Fill-2"></path>
                <path d="M41.0662836,52.1371622 C40.9272239,41.9222297 52.8656716,39.9408108 52.8116567,35.955 C52.7852239,34.0206757 51.2256866,33.2292568 49.7937164,33.2487838 C47.1607761,33.2843919 45.7299552,36.2444595 45.7299552,36.2444595 L40.6502537,32.9466892 C40.6502537,32.9466892 43.124597,26.9530405 50.3269701,26.8554054 C54.8561791,26.7933784 59.8083134,29.3192568 59.8876119,35.2014865 C60.0048358,43.8301351 48.8777612,45.6461486 48.731806,49.2081081 L60.5024627,49.0484459 L60.5806119,54.8537162 L41.4156567,55.1133108 C41.2076418,54.0324324 41.0789254,53.0664189 41.0662836,52.1371622" id="Fill-3"></path>
            </g>
        </g>
    </g>
</svg>